<?xml version="1.0" encoding="UTF-8"?>
<svg xmlns="http://www.w3.org/2000/svg" xmlns:xlink="http://www.w3.org/1999/xlink" width="254.91pt" height="103.53pt" viewBox="0 0 254.91 103.53" version="1.2">
<defs>
<g>
<symbol overflow="visible" id="glyph0-0">
<path style="stroke:none;" d=""/>
</symbol>
<symbol overflow="visible" id="glyph0-1">
<path style="stroke:none;" d="M 1.90625 -2.484375 C 1.90625 -2.765625 1.671875 -3 1.375 -3 C 1.09375 -3 0.859375 -2.765625 0.859375 -2.484375 C 0.859375 -2.1875 1.09375 -1.953125 1.375 -1.953125 C 1.671875 -1.953125 1.90625 -2.1875 1.90625 -2.484375 Z M 1.90625 -2.484375 "/>
</symbol>
<symbol overflow="visible" id="glyph1-0">
<path style="stroke:none;" d=""/>
</symbol>
<symbol overflow="visible" id="glyph1-1">
<path style="stroke:none;" d="M 5.09375 -2.90625 C 5.09375 -3.15625 5.015625 -3.515625 4.703125 -3.515625 C 4.5 -3.515625 4.28125 -3.3125 4.28125 -3.09375 C 4.28125 -2.96875 4.375 -2.890625 4.453125 -2.8125 C 4.578125 -2.703125 4.703125 -2.5 4.703125 -2.203125 C 4.703125 -1.671875 4.15625 -0.546875 3.359375 -0.546875 C 2.9375 -0.546875 2.65625 -0.78125 2.5625 -1.171875 C 2.6875 -1.4375 2.859375 -1.875 2.859375 -2.09375 C 2.859375 -2.234375 2.796875 -2.328125 2.640625 -2.328125 C 2.28125 -2.328125 2.234375 -1.453125 2.234375 -1.203125 C 1.953125 -0.859375 1.640625 -0.546875 1.171875 -0.546875 C 0.671875 -0.546875 0.421875 -0.9375 0.421875 -1.40625 C 0.421875 -1.78125 0.53125 -2.125 0.6875 -2.421875 C 0.921875 -2.890625 1.234375 -3.1875 1.234375 -3.3125 C 1.234375 -3.40625 1.15625 -3.46875 1.078125 -3.46875 C 0.921875 -3.46875 0.796875 -3.234375 0.71875 -3.09375 C 0.375 -2.53125 0.125 -1.796875 0.125 -1.140625 C 0.125 -0.53125 0.359375 0.078125 1.0625 0.078125 C 1.734375 0.078125 2.125 -0.46875 2.296875 -0.703125 C 2.421875 -0.265625 2.75 0.078125 3.234375 0.078125 C 3.875 0.078125 4.203125 -0.34375 4.53125 -0.890625 C 4.78125 -1.3125 5.09375 -2.40625 5.09375 -2.90625 Z M 5.09375 -2.90625 "/>
</symbol>
<symbol overflow="visible" id="glyph2-0">
<path style="stroke:none;" d=""/>
</symbol>
<symbol overflow="visible" id="glyph2-1">
<path style="stroke:none;" d="M 1.609375 -1.984375 C 1.609375 -2.25 1.390625 -2.421875 1.171875 -2.421875 C 0.921875 -2.421875 0.734375 -2.21875 0.734375 -2 C 0.734375 -1.71875 0.953125 -1.546875 1.171875 -1.546875 C 1.421875 -1.546875 1.609375 -1.75 1.609375 -1.984375 Z M 1.609375 -1.984375 "/>
</symbol>
<symbol overflow="visible" id="glyph3-0">
<path style="stroke:none;" d=""/>
</symbol>
<symbol overflow="visible" id="glyph3-1">
<path style="stroke:none;" d="M 2.234375 -1.625 C 2.359375 -1.734375 2.703125 -2 2.828125 -2.109375 C 3.3125 -2.5625 3.78125 -3 3.78125 -3.71875 C 3.78125 -4.671875 3 -5.28125 2 -5.28125 C 1.046875 -5.28125 0.421875 -4.5625 0.421875 -3.84375 C 0.421875 -3.453125 0.734375 -3.40625 0.84375 -3.40625 C 1.015625 -3.40625 1.25 -3.53125 1.25 -3.828125 C 1.25 -4.234375 0.859375 -4.234375 0.765625 -4.234375 C 0.984375 -4.8125 1.53125 -5.015625 1.90625 -5.015625 C 2.65625 -5.015625 3.03125 -4.390625 3.03125 -3.71875 C 3.03125 -2.890625 2.453125 -2.296875 1.515625 -1.328125 L 0.515625 -0.296875 C 0.421875 -0.21875 0.421875 -0.203125 0.421875 0 L 3.5625 0 L 3.78125 -1.421875 L 3.546875 -1.421875 C 3.515625 -1.265625 3.453125 -0.859375 3.359375 -0.71875 C 3.3125 -0.65625 2.703125 -0.65625 2.578125 -0.65625 L 1.171875 -0.65625 Z M 2.234375 -1.625 "/>
</symbol>
<symbol overflow="visible" id="glyph3-2">
<path style="stroke:none;" d="M 5.796875 -2.640625 C 5.921875 -2.640625 6.078125 -2.640625 6.078125 -2.828125 C 6.078125 -3.015625 5.890625 -3.015625 5.765625 -3.015625 L 0.78125 -3.015625 C 0.65625 -3.015625 0.46875 -3.015625 0.46875 -2.828125 C 0.46875 -2.640625 0.625 -2.640625 0.75 -2.640625 Z M 5.765625 -0.953125 C 5.890625 -0.953125 6.078125 -0.953125 6.078125 -1.140625 C 6.078125 -1.328125 5.921875 -1.328125 5.796875 -1.328125 L 0.75 -1.328125 C 0.625 -1.328125 0.46875 -1.328125 0.46875 -1.140625 C 0.46875 -0.953125 0.65625 -0.953125 0.78125 -0.953125 Z M 5.765625 -0.953125 "/>
</symbol>
</g>
<clipPath id="clip1">
  <path d="M 150 14 L 254.289062 14 L 254.289062 35 L 150 35 Z M 150 14 "/>
</clipPath>
</defs>
<g id="surface1">
<path style="fill-rule:nonzero;fill:rgb(100%,100%,100%);fill-opacity:1;stroke-width:0.59776;stroke-linecap:butt;stroke-linejoin:miter;stroke:rgb(0%,0%,0%);stroke-opacity:1;stroke-miterlimit:10;" d="M 34.017454 0.000353907 C 34.017454 4.697362 30.207266 8.503626 25.510258 8.503626 C 20.817174 8.503626 17.006986 4.697362 17.006986 0.000353907 C 17.006986 -4.696654 20.817174 -8.502918 25.510258 -8.502918 C 30.207266 -8.502918 34.017454 -4.696654 34.017454 0.000353907 Z M 34.017454 0.000353907 " transform="matrix(0.995481,0,0,-0.995481,15.15581,11.734727)"/>
<path style="fill-rule:nonzero;fill:rgb(100%,100%,100%);fill-opacity:1;stroke-width:0.59776;stroke-linecap:butt;stroke-linejoin:miter;stroke:rgb(0%,0%,0%);stroke-opacity:1;stroke-miterlimit:10;" d="M 59.52727 0.000353907 C 59.52727 4.697362 55.721006 8.503626 51.023998 8.503626 C 46.32699 8.503626 42.520726 4.697362 42.520726 0.000353907 C 42.520726 -4.696654 46.32699 -8.502918 51.023998 -8.502918 C 55.721006 -8.502918 59.52727 -4.696654 59.52727 0.000353907 Z M 59.52727 0.000353907 " transform="matrix(0.995481,0,0,-0.995481,15.15581,11.734727)"/>
<path style="fill-rule:nonzero;fill:rgb(100%,100%,100%);fill-opacity:1;stroke-width:0.59776;stroke-linecap:butt;stroke-linejoin:miter;stroke:rgb(0%,0%,0%);stroke-opacity:1;stroke-miterlimit:10;" d="M 85.04101 0.000353907 C 85.04101 4.697362 81.230822 8.503626 76.537738 8.503626 C 71.84073 8.503626 68.030542 4.697362 68.030542 0.000353907 C 68.030542 -4.696654 71.84073 -8.502918 76.537738 -8.502918 C 81.230822 -8.502918 85.04101 -4.696654 85.04101 0.000353907 Z M 85.04101 0.000353907 " transform="matrix(0.995481,0,0,-0.995481,15.15581,11.734727)"/>
<path style="fill:none;stroke-width:0.59776;stroke-linecap:butt;stroke-linejoin:miter;stroke:rgb(0%,0%,0%);stroke-opacity:1;stroke-miterlimit:10;" d="M 34.315677 0.000353907 L 42.222503 0.000353907 " transform="matrix(0.995481,0,0,-0.995481,15.15581,11.734727)"/>
<path style="fill:none;stroke-width:0.59776;stroke-linecap:butt;stroke-linejoin:miter;stroke:rgb(0%,0%,0%);stroke-opacity:1;stroke-miterlimit:10;" d="M 59.825493 0.000353907 L 67.732319 0.000353907 " transform="matrix(0.995481,0,0,-0.995481,15.15581,11.734727)"/>
<g style="fill:rgb(0%,0%,0%);fill-opacity:1;">
  <use xlink:href="#glyph0-1" x="110.131644" y="13.938722"/>
</g>
<g style="fill:rgb(0%,0%,0%);fill-opacity:1;">
  <use xlink:href="#glyph0-1" x="114.52513" y="13.938722"/>
</g>
<g style="fill:rgb(0%,0%,0%);fill-opacity:1;">
  <use xlink:href="#glyph0-1" x="118.928534" y="13.938722"/>
</g>
<path style="fill:none;stroke-width:0.59776;stroke-linecap:butt;stroke-linejoin:miter;stroke:rgb(0%,0%,0%);stroke-opacity:1;stroke-miterlimit:10;" d="M 85.339233 0.000353907 L 91.888361 0.000353907 " transform="matrix(0.995481,0,0,-0.995481,15.15581,11.734727)"/>
<path style="fill-rule:nonzero;fill:rgb(100%,100%,100%);fill-opacity:1;stroke-width:0.59776;stroke-linecap:butt;stroke-linejoin:miter;stroke:rgb(0%,0%,0%);stroke-opacity:1;stroke-miterlimit:10;" d="M 158.741266 0.000353907 C 158.741266 4.697362 154.935002 8.503626 150.237994 8.503626 C 145.540986 8.503626 141.734722 4.697362 141.734722 0.000353907 C 141.734722 -4.696654 145.540986 -8.502918 150.237994 -8.502918 C 154.935002 -8.502918 158.741266 -4.696654 158.741266 0.000353907 Z M 158.741266 0.000353907 " transform="matrix(0.995481,0,0,-0.995481,15.15581,11.734727)"/>
<path style="fill-rule:nonzero;fill:rgb(100%,100%,100%);fill-opacity:1;stroke-width:0.59776;stroke-linecap:butt;stroke-linejoin:miter;stroke:rgb(0%,0%,0%);stroke-opacity:1;stroke-miterlimit:10;" d="M 184.255006 0.000353907 C 184.255006 4.697362 180.444818 8.503626 175.74781 8.503626 C 171.054726 8.503626 167.244538 4.697362 167.244538 0.000353907 C 167.244538 -4.696654 171.054726 -8.502918 175.74781 -8.502918 C 180.444818 -8.502918 184.255006 -4.696654 184.255006 0.000353907 Z M 184.255006 0.000353907 " transform="matrix(0.995481,0,0,-0.995481,15.15581,11.734727)"/>
<path style="fill-rule:nonzero;fill:rgb(100%,100%,100%);fill-opacity:1;stroke-width:0.59776;stroke-linecap:butt;stroke-linejoin:miter;stroke:rgb(0%,0%,0%);stroke-opacity:1;stroke-miterlimit:10;" d="M 209.764822 0.000353907 C 209.764822 4.697362 205.958558 8.503626 201.26155 8.503626 C 196.564542 8.503626 192.758278 4.697362 192.758278 0.000353907 C 192.758278 -4.696654 196.564542 -8.502918 201.26155 -8.502918 C 205.958558 -8.502918 209.764822 -4.696654 209.764822 0.000353907 Z M 209.764822 0.000353907 " transform="matrix(0.995481,0,0,-0.995481,15.15581,11.734727)"/>
<path style="fill:none;stroke-width:0.59776;stroke-linecap:butt;stroke-linejoin:miter;stroke:rgb(0%,0%,0%);stroke-opacity:1;stroke-miterlimit:10;" d="M 159.039489 0.000353907 L 166.946315 0.000353907 " transform="matrix(0.995481,0,0,-0.995481,15.15581,11.734727)"/>
<path style="fill:none;stroke-width:0.59776;stroke-linecap:butt;stroke-linejoin:miter;stroke:rgb(0%,0%,0%);stroke-opacity:1;stroke-miterlimit:10;" d="M 184.553229 0.000353907 L 192.460055 0.000353907 " transform="matrix(0.995481,0,0,-0.995481,15.15581,11.734727)"/>
<g style="fill:rgb(0%,0%,0%);fill-opacity:1;">
  <use xlink:href="#glyph0-1" x="234.293978" y="13.938722"/>
</g>
<g style="fill:rgb(0%,0%,0%);fill-opacity:1;">
  <use xlink:href="#glyph0-1" x="238.687465" y="13.938722"/>
</g>
<g style="fill:rgb(0%,0%,0%);fill-opacity:1;">
  <use xlink:href="#glyph0-1" x="243.090869" y="13.938722"/>
</g>
<path style="fill:none;stroke-width:0.59776;stroke-linecap:butt;stroke-linejoin:miter;stroke:rgb(0%,0%,0%);stroke-opacity:1;stroke-miterlimit:10;" d="M 210.063045 0.000353907 L 216.612173 0.000353907 " transform="matrix(0.995481,0,0,-0.995481,15.15581,11.734727)"/>
<path style="fill:none;stroke-width:0.59776;stroke-linecap:butt;stroke-linejoin:miter;stroke:rgb(100%,0%,0%);stroke-opacity:1;stroke-miterlimit:10;" d="M 112.210671 0.000353907 L 141.436499 0.000353907 " transform="matrix(0.995481,0,0,-0.995481,15.15581,11.734727)"/>
<g style="fill:rgb(0%,0%,0%);fill-opacity:1;">
  <use xlink:href="#glyph1-1" x="6.81169" y="14.291122"/>
</g>
<g style="fill:rgb(0%,0%,0%);fill-opacity:1;">
  <use xlink:href="#glyph2-1" x="14.212094" y="14.291122"/>
</g>
<g style="fill:rgb(0%,0%,0%);fill-opacity:1;">
  <use xlink:href="#glyph3-1" x="18.42696" y="14.291122"/>
</g>
<path style="fill:none;stroke-width:0.59776;stroke-linecap:butt;stroke-linejoin:miter;stroke:rgb(0%,0%,0%);stroke-opacity:1;stroke-miterlimit:10;" d="M 19.28682 -11.328186 C 19.816558 -12.371966 21.040841 -13.062587 22.78309 -13.050815 L 62.270134 -12.842844 C 64.012383 -12.834996 65.236666 -13.525617 65.766404 -14.569396 C 66.284369 -13.517769 67.500804 -12.815376 69.243053 -12.807528 L 108.730098 -12.599557 C 110.472346 -12.587785 111.688781 -11.885392 112.206747 -10.837688 " transform="matrix(0.995481,0,0,-0.995481,15.15581,11.734727)"/>
<g style="fill:rgb(0%,0%,0%);fill-opacity:1;">
  <use xlink:href="#glyph1-1" x="77.84422" y="32.760277"/>
</g>
<g clip-path="url(#clip1)" clip-rule="nonzero">
<path style="fill:none;stroke-width:0.59776;stroke-linecap:butt;stroke-linejoin:miter;stroke:rgb(0%,0%,0%);stroke-opacity:1;stroke-miterlimit:10;" d="M 144.014556 -11.328186 C 144.54037 -12.371966 145.764653 -13.062587 147.510826 -13.050815 L 186.993946 -12.842844 C 188.740119 -12.834996 189.960478 -13.525617 190.490216 -14.569396 C 191.008181 -13.517769 192.224616 -12.815376 193.966865 -12.807528 L 233.45391 -12.599557 C 235.196158 -12.587785 236.412593 -11.885392 236.930559 -10.837688 " transform="matrix(0.995481,0,0,-0.995481,15.15581,11.734727)"/>
</g>
<g style="fill:rgb(0%,0%,0%);fill-opacity:1;">
  <use xlink:href="#glyph1-1" x="202.006555" y="32.760277"/>
</g>
<path style="fill-rule:nonzero;fill:rgb(100%,100%,100%);fill-opacity:1;stroke-width:0.59776;stroke-linecap:butt;stroke-linejoin:miter;stroke:rgb(0%,0%,0%);stroke-opacity:1;stroke-miterlimit:10;" d="M 34.017454 -62.363514 C 34.017454 -57.666506 30.207266 -53.860242 25.510258 -53.860242 C 20.817174 -53.860242 17.006986 -57.666506 17.006986 -62.363514 C 17.006986 -67.060522 20.817174 -70.866786 25.510258 -70.866786 C 30.207266 -70.866786 34.017454 -67.060522 34.017454 -62.363514 Z M 34.017454 -62.363514 " transform="matrix(0.995481,0,0,-0.995481,15.15581,11.734727)"/>
<path style="fill-rule:nonzero;fill:rgb(100%,100%,100%);fill-opacity:1;stroke-width:0.59776;stroke-linecap:butt;stroke-linejoin:miter;stroke:rgb(0%,0%,0%);stroke-opacity:1;stroke-miterlimit:10;" d="M 59.52727 -62.363514 C 59.52727 -57.666506 55.721006 -53.860242 51.023998 -53.860242 C 46.32699 -53.860242 42.520726 -57.666506 42.520726 -62.363514 C 42.520726 -67.060522 46.32699 -70.866786 51.023998 -70.866786 C 55.721006 -70.866786 59.52727 -67.060522 59.52727 -62.363514 Z M 59.52727 -62.363514 " transform="matrix(0.995481,0,0,-0.995481,15.15581,11.734727)"/>
<path style="fill:none;stroke-width:0.59776;stroke-linecap:butt;stroke-linejoin:miter;stroke:rgb(0%,0%,0%);stroke-opacity:1;stroke-miterlimit:10;" d="M 34.315677 -62.363514 L 42.222503 -62.363514 " transform="matrix(0.995481,0,0,-0.995481,15.15581,11.734727)"/>
<path style="fill:none;stroke-width:0.59776;stroke-linecap:butt;stroke-linejoin:miter;stroke:rgb(0%,0%,0%);stroke-opacity:1;stroke-miterlimit:10;" d="M 19.28682 -73.68813 C 19.80871 -74.735834 21.029069 -75.434303 22.775242 -75.434303 L 34.782631 -75.434303 C 36.524879 -75.434303 37.745238 -76.128848 38.267128 -77.176551 C 38.792942 -76.128848 40.013301 -75.434303 41.755549 -75.434303 L 53.762938 -75.434303 C 55.505187 -75.434303 56.725546 -74.735834 57.247436 -73.68813 " transform="matrix(0.995481,0,0,-0.995481,15.15581,11.734727)"/>
<g style="fill:rgb(0%,0%,0%);fill-opacity:1;">
  <use xlink:href="#glyph3-1" x="51.143435" y="96.783627"/>
</g>
<path style="fill-rule:nonzero;fill:rgb(100%,100%,100%);fill-opacity:1;stroke-width:0.59776;stroke-linecap:butt;stroke-linejoin:miter;stroke:rgb(0%,0%,0%);stroke-opacity:1;stroke-miterlimit:10;" d="M 93.544282 -62.363514 C 93.544282 -57.666506 89.738018 -53.860242 85.04101 -53.860242 C 80.344002 -53.860242 76.537738 -57.666506 76.537738 -62.363514 C 76.537738 -67.060522 80.344002 -70.866786 85.04101 -70.866786 C 89.738018 -70.866786 93.544282 -67.060522 93.544282 -62.363514 Z M 93.544282 -62.363514 " transform="matrix(0.995481,0,0,-0.995481,15.15581,11.734727)"/>
<path style="fill-rule:nonzero;fill:rgb(100%,100%,100%);fill-opacity:1;stroke-width:0.59776;stroke-linecap:butt;stroke-linejoin:miter;stroke:rgb(0%,0%,0%);stroke-opacity:1;stroke-miterlimit:10;" d="M 119.058022 -62.363514 C 119.058022 -57.666506 115.247834 -53.860242 110.55475 -53.860242 C 105.857742 -53.860242 102.047554 -57.666506 102.047554 -62.363514 C 102.047554 -67.060522 105.857742 -70.866786 110.55475 -70.866786 C 115.247834 -70.866786 119.058022 -67.060522 119.058022 -62.363514 Z M 119.058022 -62.363514 " transform="matrix(0.995481,0,0,-0.995481,15.15581,11.734727)"/>
<path style="fill:none;stroke-width:0.59776;stroke-linecap:butt;stroke-linejoin:miter;stroke:rgb(0%,0%,0%);stroke-opacity:1;stroke-miterlimit:10;" d="M 93.842505 -62.363514 L 101.749331 -62.363514 " transform="matrix(0.995481,0,0,-0.995481,15.15581,11.734727)"/>
<path style="fill:none;stroke-width:0.59776;stroke-linecap:butt;stroke-linejoin:miter;stroke:rgb(0%,0%,0%);stroke-opacity:1;stroke-miterlimit:10;" d="M 78.817572 -73.68813 C 79.339462 -74.735834 80.559821 -75.434303 82.30207 -75.434303 L 94.309459 -75.434303 C 96.051707 -75.434303 97.272066 -76.128848 97.79788 -77.176551 C 98.31977 -76.128848 99.540129 -75.434303 101.282377 -75.434303 L 113.289766 -75.434303 C 115.032015 -75.434303 116.256298 -74.735834 116.778188 -73.68813 " transform="matrix(0.995481,0,0,-0.995481,15.15581,11.734727)"/>
<g style="fill:rgb(0%,0%,0%);fill-opacity:1;">
  <use xlink:href="#glyph3-1" x="110.402414" y="96.783627"/>
</g>
<path style="fill-rule:nonzero;fill:rgb(100%,100%,100%);fill-opacity:1;stroke-width:0.59776;stroke-linecap:butt;stroke-linejoin:miter;stroke:rgb(0%,0%,0%);stroke-opacity:1;stroke-miterlimit:10;" d="M 153.07111 -62.363514 C 153.07111 -57.666506 149.264846 -53.860242 144.567838 -53.860242 C 139.87083 -53.860242 136.064566 -57.666506 136.064566 -62.363514 C 136.064566 -67.060522 139.87083 -70.866786 144.567838 -70.866786 C 149.264846 -70.866786 153.07111 -67.060522 153.07111 -62.363514 Z M 153.07111 -62.363514 " transform="matrix(0.995481,0,0,-0.995481,15.15581,11.734727)"/>
<path style="fill-rule:nonzero;fill:rgb(100%,100%,100%);fill-opacity:1;stroke-width:0.59776;stroke-linecap:butt;stroke-linejoin:miter;stroke:rgb(0%,0%,0%);stroke-opacity:1;stroke-miterlimit:10;" d="M 178.58485 -62.363514 C 178.58485 -57.666506 174.778586 -53.860242 170.081578 -53.860242 C 165.38457 -53.860242 161.578306 -57.666506 161.578306 -62.363514 C 161.578306 -67.060522 165.38457 -70.866786 170.081578 -70.866786 C 174.778586 -70.866786 178.58485 -67.060522 178.58485 -62.363514 Z M 178.58485 -62.363514 " transform="matrix(0.995481,0,0,-0.995481,15.15581,11.734727)"/>
<path style="fill:none;stroke-width:0.59776;stroke-linecap:butt;stroke-linejoin:miter;stroke:rgb(0%,0%,0%);stroke-opacity:1;stroke-miterlimit:10;" d="M 153.373257 -62.363514 L 161.280083 -62.363514 " transform="matrix(0.995481,0,0,-0.995481,15.15581,11.734727)"/>
<path style="fill:none;stroke-width:0.59776;stroke-linecap:butt;stroke-linejoin:miter;stroke:rgb(0%,0%,0%);stroke-opacity:1;stroke-miterlimit:10;" d="M 138.3444 -73.68813 C 138.86629 -74.735834 140.086649 -75.434303 141.832822 -75.434303 L 153.836287 -75.434303 C 155.582459 -75.434303 156.802818 -76.128848 157.324708 -77.176551 C 157.846598 -76.128848 159.066957 -75.434303 160.813129 -75.434303 L 172.820518 -75.434303 C 174.562767 -75.434303 175.783126 -74.735834 176.305016 -73.68813 " transform="matrix(0.995481,0,0,-0.995481,15.15581,11.734727)"/>
<g style="fill:rgb(0%,0%,0%);fill-opacity:1;">
  <use xlink:href="#glyph3-1" x="169.662389" y="96.783627"/>
</g>
<path style="fill:none;stroke-width:0.59776;stroke-linecap:butt;stroke-linejoin:miter;stroke:rgb(0%,0%,0%);stroke-opacity:1;stroke-miterlimit:10;" d="M 59.825493 -62.363514 L 76.235591 -62.363514 " transform="matrix(0.995481,0,0,-0.995481,15.15581,11.734727)"/>
<path style="fill:none;stroke-width:0.59776;stroke-linecap:butt;stroke-linejoin:miter;stroke:rgb(0%,0%,0%);stroke-opacity:1;stroke-miterlimit:10;" d="M 119.356245 -62.363514 L 135.766343 -62.363514 " transform="matrix(0.995481,0,0,-0.995481,15.15581,11.734727)"/>
<g style="fill:rgb(0%,0%,0%);fill-opacity:1;">
  <use xlink:href="#glyph0-1" x="203.252897" y="76.019889"/>
</g>
<g style="fill:rgb(0%,0%,0%);fill-opacity:1;">
  <use xlink:href="#glyph0-1" x="207.646383" y="76.019889"/>
</g>
<g style="fill:rgb(0%,0%,0%);fill-opacity:1;">
  <use xlink:href="#glyph0-1" x="212.049787" y="76.019889"/>
</g>
<path style="fill:none;stroke-width:0.59776;stroke-linecap:butt;stroke-linejoin:miter;stroke:rgb(0%,0%,0%);stroke-opacity:1;stroke-miterlimit:10;" d="M 178.883073 -62.363514 L 185.432201 -62.363514 " transform="matrix(0.995481,0,0,-0.995481,15.15581,11.734727)"/>
<g style="fill:rgb(0%,0%,0%);fill-opacity:1;">
  <use xlink:href="#glyph3-1" x="6.81169" y="76.372289"/>
</g>
<g style="fill:rgb(0%,0%,0%);fill-opacity:1;">
  <use xlink:href="#glyph2-1" x="12.90005" y="76.372289"/>
</g>
<g style="fill:rgb(0%,0%,0%);fill-opacity:1;">
  <use xlink:href="#glyph1-1" x="17.114916" y="76.372289"/>
</g>
<g style="fill:rgb(0%,0%,0%);fill-opacity:1;">
  <use xlink:href="#glyph3-2" x="227.716837" y="75.52414"/>
</g>
<g style="fill:rgb(0%,0%,0%);fill-opacity:1;">
  <use xlink:href="#glyph1-1" x="236.615439" y="75.52414"/>
</g>
</g>
</svg>
