<?xml version="1.0" encoding="UTF-8"?>
<svg xmlns="http://www.w3.org/2000/svg" xmlns:xlink="http://www.w3.org/1999/xlink" width="280.27pt" height="111.31pt" viewBox="0 0 210.73 83.69" version="1.2">
<defs>
<g>
<symbol overflow="visible" id="glyph0-0">
<path style="stroke:none;" d=""/>
</symbol>
<symbol overflow="visible" id="glyph0-1">
<path style="stroke:none;" d="M 1.90625 -2.484375 C 1.90625 -2.765625 1.671875 -3 1.375 -3 C 1.09375 -3 0.859375 -2.765625 0.859375 -2.484375 C 0.859375 -2.1875 1.09375 -1.953125 1.375 -1.953125 C 1.671875 -1.953125 1.90625 -2.1875 1.90625 -2.484375 Z M 1.90625 -2.484375 "/>
</symbol>
<symbol overflow="visible" id="glyph1-0">
<path style="stroke:none;" d=""/>
</symbol>
<symbol overflow="visible" id="glyph1-1">
<path style="stroke:none;" d="M 3.984375 -3.171875 C 3.625 -3.078125 3.609375 -2.765625 3.609375 -2.734375 C 3.609375 -2.5625 3.75 -2.4375 3.921875 -2.4375 C 4.09375 -2.4375 4.359375 -2.578125 4.359375 -2.921875 C 4.359375 -3.375 3.859375 -3.5 3.578125 -3.5 C 3.203125 -3.5 2.890625 -3.234375 2.71875 -2.921875 C 2.546875 -3.34375 2.125 -3.5 1.796875 -3.5 C 0.9375 -3.5 0.453125 -2.515625 0.453125 -2.28125 C 0.453125 -2.21875 0.515625 -2.1875 0.578125 -2.1875 C 0.671875 -2.1875 0.6875 -2.21875 0.703125 -2.3125 C 0.890625 -2.890625 1.359375 -3.28125 1.78125 -3.28125 C 2.09375 -3.28125 2.234375 -3.0625 2.234375 -2.765625 C 2.234375 -2.609375 2.140625 -2.25 2.078125 -2 C 2.03125 -1.765625 1.84375 -1.0625 1.8125 -0.90625 C 1.703125 -0.46875 1.40625 -0.140625 1.0625 -0.140625 C 1.03125 -0.140625 0.8125 -0.140625 0.65625 -0.25 C 1.015625 -0.34375 1.015625 -0.671875 1.015625 -0.6875 C 1.015625 -0.859375 0.875 -0.96875 0.703125 -0.96875 C 0.484375 -0.96875 0.25 -0.796875 0.25 -0.484375 C 0.25 -0.125 0.640625 0.078125 1.046875 0.078125 C 1.46875 0.078125 1.765625 -0.234375 1.90625 -0.484375 C 2.078125 -0.109375 2.4375 0.078125 2.828125 0.078125 C 3.6875 0.078125 4.171875 -0.90625 4.171875 -1.140625 C 4.171875 -1.21875 4.109375 -1.234375 4.046875 -1.234375 C 3.953125 -1.234375 3.9375 -1.1875 3.90625 -1.109375 C 3.75 -0.578125 3.296875 -0.140625 2.84375 -0.140625 C 2.578125 -0.140625 2.390625 -0.3125 2.390625 -0.65625 C 2.390625 -0.8125 2.4375 -0.984375 2.546875 -1.4375 C 2.609375 -1.671875 2.78125 -2.375 2.8125 -2.53125 C 2.921875 -2.9375 3.203125 -3.28125 3.5625 -3.28125 C 3.609375 -3.28125 3.8125 -3.28125 3.984375 -3.171875 Z M 3.984375 -3.171875 "/>
</symbol>
<symbol overflow="visible" id="glyph1-2">
<path style="stroke:none;" d="M 5.09375 -2.90625 C 5.09375 -3.15625 5.015625 -3.515625 4.703125 -3.515625 C 4.5 -3.515625 4.28125 -3.3125 4.28125 -3.09375 C 4.28125 -2.96875 4.375 -2.890625 4.453125 -2.8125 C 4.578125 -2.703125 4.703125 -2.5 4.703125 -2.203125 C 4.703125 -1.671875 4.15625 -0.546875 3.359375 -0.546875 C 2.9375 -0.546875 2.65625 -0.78125 2.5625 -1.171875 C 2.6875 -1.4375 2.859375 -1.875 2.859375 -2.09375 C 2.859375 -2.234375 2.796875 -2.328125 2.640625 -2.328125 C 2.28125 -2.328125 2.234375 -1.453125 2.234375 -1.203125 C 1.953125 -0.859375 1.640625 -0.546875 1.171875 -0.546875 C 0.671875 -0.546875 0.421875 -0.9375 0.421875 -1.40625 C 0.421875 -1.78125 0.53125 -2.125 0.6875 -2.421875 C 0.921875 -2.890625 1.234375 -3.1875 1.234375 -3.3125 C 1.234375 -3.40625 1.15625 -3.46875 1.078125 -3.46875 C 0.921875 -3.46875 0.796875 -3.234375 0.71875 -3.09375 C 0.375 -2.53125 0.125 -1.796875 0.125 -1.140625 C 0.125 -0.53125 0.359375 0.078125 1.0625 0.078125 C 1.734375 0.078125 2.125 -0.46875 2.296875 -0.703125 C 2.421875 -0.265625 2.75 0.078125 3.234375 0.078125 C 3.875 0.078125 4.203125 -0.34375 4.53125 -0.890625 C 4.78125 -1.3125 5.09375 -2.40625 5.09375 -2.90625 Z M 5.09375 -2.90625 "/>
</symbol>
<symbol overflow="visible" id="glyph2-0">
<path style="stroke:none;" d=""/>
</symbol>
<symbol overflow="visible" id="glyph2-1">
<path style="stroke:none;" d="M 3.453125 -1.796875 L 5.796875 -1.796875 C 5.90625 -1.796875 6.078125 -1.796875 6.078125 -1.984375 C 6.078125 -2.171875 5.90625 -2.171875 5.796875 -2.171875 L 3.453125 -2.171875 L 3.453125 -4.515625 C 3.453125 -4.625 3.453125 -4.796875 3.28125 -4.796875 C 3.09375 -4.796875 3.09375 -4.625 3.09375 -4.515625 L 3.09375 -2.171875 L 0.75 -2.171875 C 0.640625 -2.171875 0.46875 -2.171875 0.46875 -1.984375 C 0.46875 -1.796875 0.640625 -1.796875 0.75 -1.796875 L 3.09375 -1.796875 L 3.09375 0.546875 C 3.09375 0.65625 3.09375 0.828125 3.28125 0.828125 C 3.453125 0.828125 3.453125 0.65625 3.453125 0.546875 Z M 3.453125 -1.796875 "/>
</symbol>
<symbol overflow="visible" id="glyph2-2">
<path style="stroke:none;" d="M 2.5 -5.0625 C 2.5 -5.265625 2.46875 -5.28125 2.265625 -5.28125 C 1.9375 -4.953125 1.515625 -4.765625 0.765625 -4.765625 L 0.765625 -4.515625 C 0.96875 -4.515625 1.40625 -4.515625 1.859375 -4.71875 L 1.859375 -0.65625 C 1.859375 -0.359375 1.84375 -0.265625 1.09375 -0.265625 L 0.8125 -0.265625 L 0.8125 0 C 1.140625 -0.03125 1.8125 -0.03125 2.171875 -0.03125 C 2.53125 -0.03125 3.21875 -0.03125 3.546875 0 L 3.546875 -0.265625 L 3.265625 -0.265625 C 2.515625 -0.265625 2.5 -0.359375 2.5 -0.65625 Z M 2.5 -5.0625 "/>
</symbol>
<symbol overflow="visible" id="glyph2-3">
<path style="stroke:none;" d="M 5.796875 -2.640625 C 5.921875 -2.640625 6.078125 -2.640625 6.078125 -2.828125 C 6.078125 -3.015625 5.890625 -3.015625 5.765625 -3.015625 L 0.78125 -3.015625 C 0.65625 -3.015625 0.46875 -3.015625 0.46875 -2.828125 C 0.46875 -2.640625 0.625 -2.640625 0.75 -2.640625 Z M 5.765625 -0.953125 C 5.890625 -0.953125 6.078125 -0.953125 6.078125 -1.140625 C 6.078125 -1.328125 5.921875 -1.328125 5.796875 -1.328125 L 0.75 -1.328125 C 0.625 -1.328125 0.46875 -1.328125 0.46875 -1.140625 C 0.46875 -0.953125 0.65625 -0.953125 0.78125 -0.953125 Z M 5.765625 -0.953125 "/>
</symbol>
</g>
</defs>
<g id="surface1">
<path style="fill-rule:nonzero;fill:rgb(100%,100%,100%);fill-opacity:1;stroke-width:0.59776;stroke-linecap:butt;stroke-linejoin:miter;stroke:rgb(0%,0%,0%);stroke-opacity:1;stroke-miterlimit:10;" d="M 34.016032 0.000397001 C 34.016032 4.697419 30.209014 8.504437 25.511992 8.504437 C 20.81497 8.504437 17.007952 4.697419 17.007952 0.000397001 C 17.007952 -4.696625 20.81497 -8.503643 25.511992 -8.503643 C 30.209014 -8.503643 34.016032 -4.696625 34.016032 0.000397001 Z M 34.016032 0.000397001 " transform="matrix(0.99631,0,0,-0.99631,19.109503,11.746489)"/>
<path style="fill-rule:nonzero;fill:rgb(100%,100%,100%);fill-opacity:1;stroke-width:0.59776;stroke-linecap:butt;stroke-linejoin:miter;stroke:rgb(0%,0%,0%);stroke-opacity:1;stroke-miterlimit:10;" d="M 59.528153 0.000397001 C 59.528153 4.697419 55.721135 8.504437 51.024113 8.504437 C 46.327091 8.504437 42.520073 4.697419 42.520073 0.000397001 C 42.520073 -4.696625 46.327091 -8.503643 51.024113 -8.503643 C 55.721135 -8.503643 59.528153 -4.696625 59.528153 0.000397001 Z M 59.528153 0.000397001 " transform="matrix(0.99631,0,0,-0.99631,19.109503,11.746489)"/>
<path style="fill-rule:nonzero;fill:rgb(100%,100%,100%);fill-opacity:1;stroke-width:0.59776;stroke-linecap:butt;stroke-linejoin:miter;stroke:rgb(0%,0%,0%);stroke-opacity:1;stroke-miterlimit:10;" d="M 85.040274 0.000397001 C 85.040274 4.697419 81.233255 8.504437 76.536233 8.504437 C 71.839212 8.504437 68.032193 4.697419 68.032193 0.000397001 C 68.032193 -4.696625 71.839212 -8.503643 76.536233 -8.503643 C 81.233255 -8.503643 85.040274 -4.696625 85.040274 0.000397001 Z M 85.040274 0.000397001 " transform="matrix(0.99631,0,0,-0.99631,19.109503,11.746489)"/>
<path style="fill-rule:nonzero;fill:rgb(100%,100%,100%);fill-opacity:1;stroke-width:0.59776;stroke-linecap:butt;stroke-linejoin:miter;stroke:rgb(0%,0%,0%);stroke-opacity:1;stroke-miterlimit:10;" d="M 110.552394 0.000397001 C 110.552394 4.697419 106.745376 8.504437 102.048354 8.504437 C 97.351332 8.504437 93.544314 4.697419 93.544314 0.000397001 C 93.544314 -4.696625 97.351332 -8.503643 102.048354 -8.503643 C 106.745376 -8.503643 110.552394 -4.696625 110.552394 0.000397001 Z M 110.552394 0.000397001 " transform="matrix(0.99631,0,0,-0.99631,19.109503,11.746489)"/>
<path style="fill:none;stroke-width:0.59776;stroke-linecap:butt;stroke-linejoin:miter;stroke:rgb(0%,0%,0%);stroke-opacity:1;stroke-miterlimit:10;" d="M 34.314007 0.000397001 L 42.222098 0.000397001 " transform="matrix(0.99631,0,0,-0.99631,19.109503,11.746489)"/>
<path style="fill:none;stroke-width:0.59776;stroke-linecap:butt;stroke-linejoin:miter;stroke:rgb(0%,0%,0%);stroke-opacity:1;stroke-miterlimit:10;" d="M 59.826128 0.000397001 L 67.734219 0.000397001 " transform="matrix(0.99631,0,0,-0.99631,19.109503,11.746489)"/>
<path style="fill:none;stroke-width:0.59776;stroke-linecap:butt;stroke-linejoin:miter;stroke:rgb(0%,0%,0%);stroke-opacity:1;stroke-miterlimit:10;" d="M 85.338248 0.000397001 L 93.246339 0.000397001 " transform="matrix(0.99631,0,0,-0.99631,19.109503,11.746489)"/>
<g style="fill:rgb(0%,0%,0%);fill-opacity:1;">
  <use xlink:href="#glyph0-1" x="139.582254" y="13.952319"/>
</g>
<g style="fill:rgb(0%,0%,0%);fill-opacity:1;">
  <use xlink:href="#glyph0-1" x="143.979398" y="13.952319"/>
</g>
<g style="fill:rgb(0%,0%,0%);fill-opacity:1;">
  <use xlink:href="#glyph0-1" x="148.386468" y="13.952319"/>
</g>
<path style="fill:none;stroke-width:0.59776;stroke-linecap:butt;stroke-linejoin:miter;stroke:rgb(0%,0%,0%);stroke-opacity:1;stroke-miterlimit:10;" d="M 110.850369 0.000397001 L 117.39797 0.000397001 " transform="matrix(0.99631,0,0,-0.99631,19.109503,11.746489)"/>
<path style="fill-rule:nonzero;fill:rgb(100%,100%,100%);fill-opacity:1;stroke-width:0.59776;stroke-linecap:butt;stroke-linejoin:miter;stroke:rgb(0%,0%,0%);stroke-opacity:1;stroke-miterlimit:10;" d="M 167.245996 0.000397001 C 167.245996 4.697419 163.438977 8.504437 158.741955 8.504437 C 154.044934 8.504437 150.237915 4.697419 150.237915 0.000397001 C 150.237915 -4.696625 154.044934 -8.503643 158.741955 -8.503643 C 163.438977 -8.503643 167.245996 -4.696625 167.245996 0.000397001 Z M 167.245996 0.000397001 " transform="matrix(0.99631,0,0,-0.99631,19.109503,11.746489)"/>
<g style="fill:rgb(0%,0%,0%);fill-opacity:1;">
  <use xlink:href="#glyph1-1" x="174.891464" y="14.630805"/>
</g>
<path style="fill:none;stroke-width:0.59776;stroke-linecap:butt;stroke-linejoin:miter;stroke:rgb(100%,0%,0%);stroke-opacity:1;stroke-miterlimit:10;" d="M 137.722979 0.000397001 L 149.939941 0.000397001 " transform="matrix(0.99631,0,0,-0.99631,19.109503,11.746489)"/>
<g style="fill:rgb(0%,0%,0%);fill-opacity:1;">
  <use xlink:href="#glyph1-2" x="6.540062" y="13.891544"/>
</g>
<g style="fill:rgb(0%,0%,0%);fill-opacity:1;">
  <use xlink:href="#glyph2-1" x="13.946627" y="13.891544"/>
</g>
<g style="fill:rgb(0%,0%,0%);fill-opacity:1;">
  <use xlink:href="#glyph2-2" x="22.379636" y="13.891544"/>
</g>
<path style="fill-rule:nonzero;fill:rgb(100%,100%,100%);fill-opacity:1;stroke-width:0.59776;stroke-linecap:butt;stroke-linejoin:miter;stroke:rgb(0%,0%,0%);stroke-opacity:1;stroke-miterlimit:10;" d="M 34.016032 -42.519804 C 34.016032 -37.822782 30.209014 -34.015764 25.511992 -34.015764 C 20.81497 -34.015764 17.007952 -37.822782 17.007952 -42.519804 C 17.007952 -47.216826 20.81497 -51.023844 25.511992 -51.023844 C 30.209014 -51.023844 34.016032 -47.216826 34.016032 -42.519804 Z M 34.016032 -42.519804 " transform="matrix(0.99631,0,0,-0.99631,19.109503,11.746489)"/>
<path style="fill-rule:nonzero;fill:rgb(100%,100%,100%);fill-opacity:1;stroke-width:0.59776;stroke-linecap:butt;stroke-linejoin:miter;stroke:rgb(0%,0%,0%);stroke-opacity:1;stroke-miterlimit:10;" d="M 59.528153 -42.519804 C 59.528153 -37.822782 55.721135 -34.015764 51.024113 -34.015764 C 46.327091 -34.015764 42.520073 -37.822782 42.520073 -42.519804 C 42.520073 -47.216826 46.327091 -51.023844 51.024113 -51.023844 C 55.721135 -51.023844 59.528153 -47.216826 59.528153 -42.519804 Z M 59.528153 -42.519804 " transform="matrix(0.99631,0,0,-0.99631,19.109503,11.746489)"/>
<path style="fill-rule:nonzero;fill:rgb(100%,100%,100%);fill-opacity:1;stroke-width:0.59776;stroke-linecap:butt;stroke-linejoin:miter;stroke:rgb(0%,0%,0%);stroke-opacity:1;stroke-miterlimit:10;" d="M 85.040274 -42.519804 C 85.040274 -37.822782 81.233255 -34.015764 76.536233 -34.015764 C 71.839212 -34.015764 68.032193 -37.822782 68.032193 -42.519804 C 68.032193 -47.216826 71.839212 -51.023844 76.536233 -51.023844 C 81.233255 -51.023844 85.040274 -47.216826 85.040274 -42.519804 Z M 85.040274 -42.519804 " transform="matrix(0.99631,0,0,-0.99631,19.109503,11.746489)"/>
<path style="fill-rule:nonzero;fill:rgb(100%,100%,100%);fill-opacity:1;stroke-width:0.59776;stroke-linecap:butt;stroke-linejoin:miter;stroke:rgb(0%,0%,0%);stroke-opacity:1;stroke-miterlimit:10;" d="M 110.552394 -42.519804 C 110.552394 -37.822782 106.745376 -34.015764 102.048354 -34.015764 C 97.351332 -34.015764 93.544314 -37.822782 93.544314 -42.519804 C 93.544314 -47.216826 97.351332 -51.023844 102.048354 -51.023844 C 106.745376 -51.023844 110.552394 -47.216826 110.552394 -42.519804 Z M 110.552394 -42.519804 " transform="matrix(0.99631,0,0,-0.99631,19.109503,11.746489)"/>
<path style="fill-rule:nonzero;fill:rgb(100%,100%,100%);fill-opacity:1;stroke-width:0.59776;stroke-linecap:butt;stroke-linejoin:miter;stroke:rgb(0%,0%,0%);stroke-opacity:1;stroke-miterlimit:10;" d="M 136.064515 -42.519804 C 136.064515 -37.822782 132.257496 -34.015764 127.560475 -34.015764 C 122.863453 -34.015764 119.056434 -37.822782 119.056434 -42.519804 C 119.056434 -47.216826 122.863453 -51.023844 127.560475 -51.023844 C 132.257496 -51.023844 136.064515 -47.216826 136.064515 -42.519804 Z M 136.064515 -42.519804 " transform="matrix(0.99631,0,0,-0.99631,19.109503,11.746489)"/>
<path style="fill:none;stroke-width:0.59776;stroke-linecap:butt;stroke-linejoin:miter;stroke:rgb(0%,0%,0%);stroke-opacity:1;stroke-miterlimit:10;" d="M 34.314007 -42.519804 L 42.222098 -42.519804 " transform="matrix(0.99631,0,0,-0.99631,19.109503,11.746489)"/>
<path style="fill:none;stroke-width:0.59776;stroke-linecap:butt;stroke-linejoin:miter;stroke:rgb(0%,0%,0%);stroke-opacity:1;stroke-miterlimit:10;" d="M 59.826128 -42.519804 L 67.734219 -42.519804 " transform="matrix(0.99631,0,0,-0.99631,19.109503,11.746489)"/>
<path style="fill:none;stroke-width:0.59776;stroke-linecap:butt;stroke-linejoin:miter;stroke:rgb(0%,0%,0%);stroke-opacity:1;stroke-miterlimit:10;" d="M 85.338248 -42.519804 L 93.246339 -42.519804 " transform="matrix(0.99631,0,0,-0.99631,19.109503,11.746489)"/>
<path style="fill:none;stroke-width:0.59776;stroke-linecap:butt;stroke-linejoin:miter;stroke:rgb(0%,0%,0%);stroke-opacity:1;stroke-miterlimit:10;" d="M 110.850369 -42.519804 L 118.75846 -42.519804 " transform="matrix(0.99631,0,0,-0.99631,19.109503,11.746489)"/>
<g style="fill:rgb(0%,0%,0%);fill-opacity:1;">
  <use xlink:href="#glyph0-1" x="165.000103" y="56.3154"/>
</g>
<g style="fill:rgb(0%,0%,0%);fill-opacity:1;">
  <use xlink:href="#glyph0-1" x="169.397247" y="56.3154"/>
</g>
<g style="fill:rgb(0%,0%,0%);fill-opacity:1;">
  <use xlink:href="#glyph0-1" x="173.804317" y="56.3154"/>
</g>
<path style="fill:none;stroke-width:0.59776;stroke-linecap:butt;stroke-linejoin:miter;stroke:rgb(0%,0%,0%);stroke-opacity:1;stroke-miterlimit:10;" d="M 136.36249 -42.519804 L 142.910091 -42.519804 " transform="matrix(0.99631,0,0,-0.99631,19.109503,11.746489)"/>
<g style="fill:rgb(0%,0%,0%);fill-opacity:1;">
  <use xlink:href="#glyph2-2" x="6.540062" y="56.254625"/>
</g>
<g style="fill:rgb(0%,0%,0%);fill-opacity:1;">
  <use xlink:href="#glyph2-1" x="12.630569" y="56.254625"/>
</g>
<g style="fill:rgb(0%,0%,0%);fill-opacity:1;">
  <use xlink:href="#glyph1-2" x="21.071236" y="56.254625"/>
</g>
<g style="fill:rgb(0%,0%,0%);fill-opacity:1;">
  <use xlink:href="#glyph2-3" x="189.484409" y="55.819237"/>
</g>
<g style="fill:rgb(0%,0%,0%);fill-opacity:1;">
  <use xlink:href="#glyph1-2" x="198.39042" y="55.819237"/>
</g>
<path style="fill:none;stroke-width:0.59776;stroke-linecap:butt;stroke-linejoin:miter;stroke:rgb(0%,0%,0%);stroke-opacity:1;stroke-miterlimit:10;" d="M 19.28589 -11.326561 C 19.815187 -12.369472 21.038451 -13.06344 22.783172 -13.055598 L 75.022836 -12.839959 C 76.767556 -12.832117 77.99082 -13.526085 78.516197 -14.568996 C 79.037652 -13.518243 80.253075 -12.816434 81.997795 -12.808593 L 134.23746 -12.592953 C 135.98218 -12.585112 137.201523 -11.883303 137.719058 -10.836471 " transform="matrix(0.99631,0,0,-0.99631,19.109503,11.746489)"/>
<g style="fill:rgb(0%,0%,0%);fill-opacity:1;">
  <use xlink:href="#glyph1-2" x="94.559027" y="32.789543"/>
</g>
<path style="fill:none;stroke-width:0.59776;stroke-linecap:butt;stroke-linejoin:miter;stroke:rgb(0%,0%,0%);stroke-opacity:1;stroke-miterlimit:10;" d="M 152.515853 -11.326561 C 152.986339 -12.373393 154.072379 -13.071281 155.628904 -13.071281 C 157.18543 -13.071281 158.27539 -13.769169 158.741955 -14.812081 C 159.208521 -13.769169 160.298481 -13.071281 161.855007 -13.071281 C 163.411532 -13.071281 164.501492 -12.373393 164.968058 -11.326561 " transform="matrix(0.99631,0,0,-0.99631,19.109503,11.746489)"/>
<g style="fill:rgb(0%,0%,0%);fill-opacity:1;">
  <use xlink:href="#glyph2-2" x="175.156482" y="34.733343"/>
</g>
<path style="fill:none;stroke-width:0.59776;stroke-linecap:butt;stroke-linejoin:miter;stroke:rgb(0%,0%,0%);stroke-opacity:1;stroke-miterlimit:10;" d="M 19.28589 -53.846762 C 19.752455 -54.893594 20.842415 -55.591482 22.398941 -55.591482 C 23.955467 -55.591482 25.045427 -56.28937 25.511992 -57.332282 C 25.978558 -56.28937 27.068518 -55.591482 28.625043 -55.591482 C 30.181569 -55.591482 31.271529 -54.893594 31.738094 -53.846762 " transform="matrix(0.99631,0,0,-0.99631,19.109503,11.746489)"/>
<g style="fill:rgb(0%,0%,0%);fill-opacity:1;">
  <use xlink:href="#glyph2-2" x="42.418164" y="77.096424"/>
</g>
<path style="fill:none;stroke-width:0.59776;stroke-linecap:butt;stroke-linejoin:miter;stroke:rgb(0%,0%,0%);stroke-opacity:1;stroke-miterlimit:10;" d="M 44.798011 -53.846762 C 45.327308 -54.889673 46.550572 -55.583641 48.291371 -55.575799 L 100.534956 -55.36016 C 102.279676 -55.352318 103.502941 -56.046286 104.028317 -57.089197 C 104.549773 -56.038444 105.765196 -55.336636 107.509916 -55.328794 L 159.74958 -55.113154 C 161.4943 -55.105313 162.709723 -54.403504 163.231179 -53.356672 " transform="matrix(0.99631,0,0,-0.99631,19.109503,11.746489)"/>
<g style="fill:rgb(0%,0%,0%);fill-opacity:1;">
  <use xlink:href="#glyph1-2" x="119.976875" y="75.15362"/>
</g>
</g>
</svg>
